<svg version="1.1" id="Layer_1" xmlns="http://www.w3.org/2000/svg" xmlns:xlink="http://www.w3.org/1999/xlink" x="0px" y="0px"
	 width="100%" viewBox="0 0 496 496" enable-background="new 0 0 496 496" xml:space="preserve">
<path fill="#000000" opacity="1.000000" stroke="none" 
	d="
M397.869476,301.795898 
	C389.190826,316.436249 380.741425,330.788849 372.195160,345.083557 
	C367.358582,353.173340 360.096771,357.304230 350.687225,357.305847 
	C263.715057,357.320770 176.742645,357.191986 89.771187,357.429840 
	C81.509171,357.452423 78.109024,350.034668 81.860153,343.715973 
	C98.014999,316.503326 114.139572,289.271515 130.519806,262.194672 
	C135.250793,254.374252 142.711807,250.650864 151.942566,250.657562 
	C175.101822,250.674347 198.262939,250.511856 221.418900,250.788895 
	C226.605728,250.850952 227.849426,249.219971 227.769058,244.253998 
	C227.480637,226.431000 227.652664,208.600555 227.650665,190.772919 
	C227.650467,188.962875 227.650635,187.152847 227.650635,184.523392 
	C233.823578,185.736115 240.216202,181.517151 245.460129,187.607452 
	C260.384674,181.092300 265.780334,182.179703 278.146149,194.456238 
	C279.157166,192.926193 278.546722,191.232483 278.675507,189.652603 
	C278.817169,187.914688 279.401855,186.646118 281.304749,186.752075 
	C285.450836,186.982941 285.618652,184.427673 285.730865,181.262772 
	C285.824219,178.629440 284.063782,174.802933 287.306244,173.596664 
	C291.306824,172.108353 296.039581,172.058426 300.049957,173.594391 
	C303.217468,174.807556 301.778290,178.596756 301.893555,181.276901 
	C302.027527,184.391571 302.214325,186.668976 306.408875,186.731415 
	C315.180573,186.862015 315.401855,187.380798 313.779663,196.784943 
	C312.649628,197.798492 311.276123,197.464798 309.968719,197.455063 
	C301.943512,197.395294 301.950256,197.391785 301.980621,205.213638 
	C301.992279,208.212524 301.900238,211.213058 301.969666,214.210190 
	C302.115417,220.503464 303.655334,221.609741 309.622650,219.817505 
	C310.544647,219.540588 311.451111,219.211929 312.295227,218.930389 
	C311.156036,198.041046 317.997437,187.379852 334.402222,184.181244 
	C348.828003,181.368484 364.115326,189.984604 368.861572,203.602875 
	C373.863556,217.954971 367.724487,233.262207 354.233307,240.040283 
	C341.548523,246.413193 324.961487,243.392258 314.499603,226.596069 
	C316.222931,230.740555 313.520447,231.791306 310.743622,232.691330 
	C306.080383,234.202789 301.407654,234.841949 296.524170,233.419556 
	C289.775818,231.453995 285.845276,226.759445 285.682465,219.642654 
	C285.545288,213.647552 285.589111,207.646790 285.642731,201.649338 
	C285.683441,197.093491 283.446198,196.735733 279.932831,198.187500 
	C287.272003,228.756744 262.344177,241.726791 244.299530,229.289139 
	C244.299530,235.566437 244.312012,241.505096 244.293243,247.443649 
	C244.285904,249.770706 245.439590,250.716125 247.710587,250.660583 
	C250.374527,250.595398 253.041687,250.670425 255.707458,250.670914 
	C307.024292,250.680191 358.341156,250.691132 409.657990,250.688019 
	C413.687500,250.687775 417.956909,250.303436 420.299042,254.509018 
	C422.701813,258.823486 421.058990,262.772247 418.706116,266.677856 
	C411.745117,278.232635 404.930237,289.875488 397.869476,301.795898 
M314.018982,290.605011 
	C310.262543,291.307739 306.475861,291.776306 302.815338,293.031921 
	C295.398346,295.576019 295.266937,295.713684 298.717651,302.648376 
	C299.004639,303.225098 299.492157,303.702057 300.077789,304.479218 
	C302.608368,303.715118 305.084717,302.677948 307.662018,302.252869 
	C312.217285,301.501617 316.938049,300.413666 321.114197,303.555298 
	C322.819336,304.838074 323.699005,306.710693 323.042633,308.852600 
	C322.455536,310.768433 320.611694,310.264496 319.208130,310.307678 
	C315.877625,310.410217 312.519073,310.124420 309.214600,310.441101 
	C302.553040,311.079529 296.117279,312.553284 293.488739,319.825317 
	C289.548645,330.726044 298.583435,340.615631 310.805847,339.289032 
	C315.388550,338.791626 319.140167,336.511322 323.175415,334.387421 
	C324.987244,340.921997 329.972595,338.047913 333.668579,338.619171 
	C336.511383,339.058563 338.041870,337.813782 338.009857,334.728638 
	C337.909668,325.064545 338.039124,315.396332 337.817566,305.735748 
	C337.662018,298.951324 333.723511,294.638885 327.634064,292.275116 
	C323.564575,290.695465 319.268066,290.102448 314.018982,290.605011 
M154.130447,338.636292 
	C164.281509,338.644531 174.432587,338.651947 184.583649,338.661255 
	C191.287643,338.667419 191.041824,338.664703 191.151718,331.808624 
	C191.222748,327.377625 189.586716,325.897186 185.275452,326.208130 
	C180.971512,326.518555 176.627014,326.280701 172.300415,326.260559 
	C164.739365,326.225342 164.734619,326.218048 164.730301,318.892456 
	C164.724121,308.408539 164.728256,297.924652 164.723373,287.440735 
	C164.718094,276.122711 164.720551,276.187958 153.359497,277.020447 
	C150.731567,277.213043 149.368561,278.013977 149.391449,280.845306 
	C149.538177,298.980560 149.651947,317.116272 149.683014,335.252014 
	C149.687576,337.922546 150.825119,338.865997 154.130447,338.636292 
M231.241821,338.620178 
	C233.574707,338.634796 235.939331,338.410492 238.233719,338.715057 
	C242.661819,339.302917 244.731323,337.373535 246.167847,333.247833 
	C249.999634,322.242950 254.330673,311.412842 258.348145,300.470978 
	C259.359070,297.717590 260.959473,295.083008 260.834412,291.901276 
	C258.360382,290.747437 255.824860,291.595093 253.409531,291.257141 
	C249.024506,290.643616 246.739807,292.394592 245.613052,296.777710 
	C243.874634,303.540192 241.570755,310.158020 239.479996,316.828857 
	C238.763489,319.114960 238.754089,321.738892 236.579834,323.519196 
	C235.058334,322.218781 234.848633,320.514435 234.363861,318.951172 
	C231.899399,311.003876 229.443939,303.053741 226.987244,295.104004 
	C226.493576,293.506561 226.132889,291.582886 224.082169,291.495300 
	C220.026413,291.322021 215.905365,290.663483 211.684448,292.024811 
	C211.914902,293.118286 211.982727,293.946350 212.263000,294.694916 
	C217.341827,308.259705 222.435364,321.819000 227.561737,335.365875 
	C228.085739,336.750610 228.649231,338.221039 231.241821,338.620178 
M263.339264,298.650146 
	C263.337097,308.816071 263.244080,318.983032 263.357941,329.147675 
	C263.474457,339.549835 261.318542,338.559570 273.487427,338.701202 
	C276.756256,338.739258 277.953156,337.494385 277.880554,334.304871 
	C277.747864,328.475006 277.716339,322.636841 277.867310,316.807953 
	C278.068481,309.042816 282.005188,304.481384 289.556213,303.814178 
	C292.929474,303.516113 293.913757,302.191498 293.689331,299.152527 
	C293.566925,297.495056 293.616180,295.819214 293.678009,294.155029 
	C293.786713,291.227386 292.619507,290.437134 289.684448,291.014557 
	C285.233215,291.890259 282.291443,295.065399 278.902893,297.742340 
	C276.661224,291.380127 273.595520,289.971436 266.088776,291.330139 
	C261.827789,292.101379 263.841705,295.406036 263.339264,298.650146 
M194.405472,312.500031 
	C194.391983,318.162537 194.333893,323.825378 194.374756,329.487488 
	C194.448212,339.665436 193.037552,338.438538 203.860443,338.746948 
	C207.941391,338.863220 209.005264,337.286713 208.941605,333.488861 
	C208.760193,322.666443 208.950790,311.838409 208.853806,301.013824 
	C208.757339,290.246796 210.407761,291.430847 198.869873,291.232147 
	C195.264633,291.170105 194.246552,292.680969 194.361450,296.013031 
	C194.539246,301.169800 194.407227,306.337250 194.405472,312.500031 
M244.317383,210.187653 
	C245.436707,217.572906 249.634979,221.437973 255.621796,220.594864 
	C261.468658,219.771469 265.665924,213.069580 264.445587,206.505646 
	C263.160797,199.594986 258.463440,196.044525 252.126312,197.194199 
	C246.992996,198.125473 244.483719,202.023941 244.317383,210.187653 
M352.027466,222.505203 
	C353.692017,219.404404 352.012268,216.793060 350.566559,214.448700 
	C354.678741,208.524139 354.805267,207.958588 349.664703,204.028549 
	C347.566010,202.424088 348.084320,200.295883 347.288452,198.447968 
	C345.496216,198.905838 345.878143,201.661407 343.632446,201.464172 
	C340.863281,201.220978 342.634644,198.294312 340.729950,197.054443 
	C339.910583,201.420364 336.335388,199.928024 333.474823,200.255554 
	C337.114441,205.779419 334.107513,218.105698 328.717438,220.960373 
	C331.852570,223.547852 333.333008,225.344620 334.199219,227.628220 
	C335.168335,226.610168 335.393799,224.582962 337.372284,224.954315 
	C340.111511,225.468445 337.980042,228.495422 339.843231,230.174118 
	C340.762573,226.587845 342.743042,225.257355 346.131500,225.813141 
	C348.376801,226.181427 350.398010,225.272797 352.027466,222.505203 
M208.499725,280.914856 
	C210.640167,274.942902 208.542175,270.190247 203.304153,269.432220 
	C199.433701,268.872101 196.375595,270.266327 194.932770,274.049164 
	C193.555344,277.660492 194.151825,281.106873 197.529465,283.264069 
	C201.364716,285.713531 205.082199,285.221344 208.499725,280.914856 
z"/>
<path fill="#000000" opacity="1.000000" stroke="none" 
	d="
M169.101440,181.478363 
	C168.546051,182.299210 168.143829,182.831940 167.703842,183.331406 
	C165.615005,185.702591 163.933517,188.862015 161.316986,190.232605 
	C157.879242,192.033340 156.231216,187.554352 153.555786,186.231705 
	C145.904587,182.449265 136.794601,183.525635 132.012436,189.307755 
	C126.561745,195.898193 126.219818,205.911987 131.221512,212.470871 
	C136.274780,219.097412 144.899933,220.995316 152.803421,217.216751 
	C153.103668,217.073212 153.387756,216.896194 153.682037,216.739746 
	C161.800995,212.423813 162.690704,212.670395 168.198547,219.968567 
	C169.561325,221.774323 169.729309,223.114746 167.931366,224.649139 
	C148.076523,241.593597 121.640984,234.823410 112.906776,214.404800 
	C103.962982,193.496216 119.256500,170.038559 141.950836,169.567291 
	C150.090546,169.398285 157.471848,171.196976 164.233994,175.536026 
	C166.351242,176.894608 169.157150,177.900070 169.101440,181.478363 
z"/>
<path fill="#000000" opacity="1.000000" stroke="none" 
	d="
M197.825958,198.666840 
	C189.938538,201.003311 187.442627,204.287399 187.376907,212.108551 
	C187.329361,217.768204 187.225555,223.431854 187.384491,229.087051 
	C187.476974,232.377716 186.128326,233.432617 182.956009,233.377060 
	C169.016418,233.132919 171.191742,235.001129 170.948471,221.999161 
	C170.752304,211.515610 171.068573,201.022629 170.882446,190.538712 
	C170.806305,186.250336 171.772964,183.759720 176.692657,184.532227 
	C178.142487,184.759903 179.692871,184.565033 181.169556,184.362488 
	C185.240631,183.804077 188.296387,184.430191 187.386703,190.598511 
	C191.113754,187.384232 194.286118,185.090820 198.185440,184.123642 
	C201.386124,183.329758 203.474304,183.909607 203.326309,187.789047 
	C203.256546,189.617538 203.135315,191.472214 203.350571,193.277679 
	C203.824829,197.255692 201.921387,198.731995 197.825958,198.666840 
z"/>
<path fill="#000000" opacity="1.000000" stroke="none" 
	d="
M204.651367,212.999603 
	C204.649292,204.676910 204.731567,196.852753 204.604248,189.031998 
	C204.553162,185.895172 205.619217,184.514496 208.906448,184.554016 
	C223.048080,184.724152 220.755783,183.131073 220.915390,195.879715 
	C221.046646,206.363892 220.817413,216.852798 220.969391,227.336395 
	C221.032242,231.671127 219.771133,233.606949 214.979324,233.436905 
	C202.978653,233.011017 204.853226,234.673737 204.659592,222.986664 
	C204.607208,219.825089 204.651596,216.661926 204.651367,212.999603 
z"/>
<path fill="#000000" opacity="1.000000" stroke="none" 
	d="
M211.254822,179.327072 
	C205.515625,177.338150 203.261444,173.581055 204.504822,168.750305 
	C205.695160,164.125610 209.190277,161.988602 214.369644,162.718704 
	C218.494781,163.300201 221.541016,167.236588 221.265488,171.629639 
	C220.960587,176.491440 217.715424,179.104996 211.254822,179.327072 
z"/>
<path fill="#000000" opacity="1.000000" stroke="none" 
	d="
M311.619507,318.060669 
	C314.527283,317.893341 317.008972,317.729980 319.484680,317.794647 
	C323.545197,317.900726 324.650146,319.640930 323.289764,323.540131 
	C321.523163,328.603638 313.494934,331.306091 309.010468,328.358154 
	C307.150330,327.135376 306.565063,325.384827 306.635712,323.239594 
	C306.735016,320.224426 308.545013,318.844482 311.619507,318.060669 
z"/>
<path fill="#000000" opacity="1.000000" stroke="none" 
	d="
M344.557526,215.336731 
	C347.008453,217.136520 348.386536,219.186798 345.919586,221.223465 
	C343.579376,223.155502 340.413239,223.065079 338.088318,221.233154 
	C335.778015,219.412750 337.383728,216.741989 338.491577,215.008499 
	C340.065460,212.545761 342.296844,214.431580 344.557526,215.336731 
z"/>
<path fill="#000000" opacity="1.000000" stroke="none" 
	d="
M343.040619,212.306061 
	C339.200928,211.626083 339.593933,209.390015 340.354553,206.944244 
	C340.996429,204.880341 342.482147,204.498520 344.277161,205.010056 
	C346.272949,205.578812 348.162384,206.542938 348.086487,208.990479 
	C347.995819,211.915710 345.776459,212.267715 343.040619,212.306061 
z"/>
</svg>